<mxfile host="app.diagrams.net" modified="2024-03-14T00:57:40.191Z" agent="Mozilla/5.0 (Windows NT 10.0; Win64; x64) AppleWebKit/537.36 (KHTML, like Gecko) Chrome/122.0.0.0 Whale/3.25.232.19 Safari/537.36" version="24.0.6" etag="hXu0qFRRHXHMQui6bQU8" type="github">
  <diagram name="Page-1" id="nMPkZMtyjwltDmxtI5WW">
    <mxGraphModel>
      <root>
        <mxCell id="0" />
        <mxCell id="1" parent="0" />
      </root>
    </mxGraphModel>
  </diagram>
</mxfile>
